<?xml version="1.0" encoding="UTF-8"?>
<svg xmlns="http://www.w3.org/2000/svg" xmlns:xlink="http://www.w3.org/1999/xlink" viewBox="0 0 480 480" width="480px" height="480px">
<g id="surface12253226">
<path style=" stroke:none;fill-rule:nonzero;fill:rgb(100%,98.431373%,98.431373%);fill-opacity:1;" d="M 108 60 C 81.5625 60 60 81.5625 60 108 L 60 372 C 60 398.4375 81.5625 420 108 420 L 372 420 C 398.4375 420 420 398.4375 420 372 L 420 108 C 420 81.5625 398.4375 60 372 60 Z M 108 72 L 372 72 C 391.953125 72 408 88.046875 408 108 L 408 372 C 408 391.953125 391.953125 408 372 408 L 108 408 C 88.046875 408 72 391.953125 72 372 L 72 108 C 72 88.046875 88.046875 72 108 72 Z M 108 90 C 104.6875 90 102 92.6875 102 96 C 102 99.3125 104.6875 102 108 102 C 111.3125 102 114 99.3125 114 96 C 114 92.6875 111.3125 90 108 90 Z M 132 90 C 128.6875 90 126 92.6875 126 96 C 126 99.3125 128.6875 102 132 102 C 135.3125 102 138 99.3125 138 96 C 138 92.6875 135.3125 90 132 90 Z M 156 90 C 152.6875 90 150 92.6875 150 96 C 150 99.3125 152.6875 102 156 102 C 159.3125 102 162 99.3125 162 96 C 162 92.6875 159.3125 90 156 90 Z M 180 90 C 176.6875 90 174 92.6875 174 96 C 174 99.3125 176.6875 102 180 102 C 183.3125 102 186 99.3125 186 96 C 186 92.6875 183.3125 90 180 90 Z M 204 90 C 200.6875 90 198 92.6875 198 96 C 198 99.3125 200.6875 102 204 102 C 207.3125 102 210 99.3125 210 96 C 210 92.6875 207.3125 90 204 90 Z M 228 90 C 224.6875 90 222 92.6875 222 96 C 222 99.3125 224.6875 102 228 102 C 231.3125 102 234 99.3125 234 96 C 234 92.6875 231.3125 90 228 90 Z M 252 90 C 248.6875 90 246 92.6875 246 96 C 246 99.3125 248.6875 102 252 102 C 255.3125 102 258 99.3125 258 96 C 258 92.6875 255.3125 90 252 90 Z M 276 90 C 272.6875 90 270 92.6875 270 96 C 270 99.3125 272.6875 102 276 102 C 279.3125 102 282 99.3125 282 96 C 282 92.6875 279.3125 90 276 90 Z M 300 90 C 296.6875 90 294 92.6875 294 96 C 294 99.3125 296.6875 102 300 102 C 303.3125 102 306 99.3125 306 96 C 306 92.6875 303.3125 90 300 90 Z M 324 90 C 320.6875 90 318 92.6875 318 96 C 318 99.3125 320.6875 102 324 102 C 327.3125 102 330 99.3125 330 96 C 330 92.6875 327.3125 90 324 90 Z M 348 90 C 344.6875 90 342 92.6875 342 96 C 342 99.3125 344.6875 102 348 102 C 351.3125 102 354 99.3125 354 96 C 354 92.6875 351.3125 90 348 90 Z M 372 90 C 368.6875 90 366 92.6875 366 96 C 366 99.3125 368.6875 102 372 102 C 375.3125 102 378 99.3125 378 96 C 378 92.6875 375.3125 90 372 90 Z M 318.832031 126.726562 C 317.753906 126.726562 316.644531 126.878906 315.550781 127.183594 L 133.96875 178.582031 C 127.589844 180.386719 123.890625 187.015625 125.695312 193.394531 L 132.082031 215.953125 L 336.75 158.039062 L 330.363281 135.46875 C 328.871094 130.183594 324.0625 126.726562 318.832031 126.726562 Z M 318.820312 138.738281 L 319.347656 140.625 L 309.738281 153.210938 L 287.132812 159.609375 L 298.722656 144.421875 Z M 284.039062 148.582031 L 272.449219 163.757812 L 249.84375 170.15625 L 261.433594 154.96875 Z M 246.75 159.128906 L 235.160156 174.316406 L 212.554688 180.703125 L 224.144531 165.527344 Z M 209.449219 169.6875 L 197.859375 184.875 L 175.265625 191.273438 L 186.855469 176.085938 Z M 172.171875 180.234375 L 160.570312 195.421875 L 140.355469 201.140625 L 139.851562 199.359375 L 149.566406 186.632812 Z M 132 222 L 132 342 C 132 348.628906 137.371094 354 144 354 L 336 354 C 342.628906 354 348 348.628906 348 342 L 348 222 Z M 160.804688 234 L 184.804688 234 L 160.804688 252 L 176.402344 252 L 200.402344 234 L 224.402344 234 L 200.402344 252 L 216 252 L 240 234 L 264 234 L 240 252 L 255.597656 252 L 279.597656 234 L 303.597656 234 L 279.597656 252 L 295.195312 252 L 319.195312 234 L 336 234 L 336 239.402344 L 319.195312 252 L 336 252 L 336 342 L 144 342 L 144 246.597656 Z M 222 276 L 222 318 L 264 297 Z M 108 378 C 104.6875 378 102 380.6875 102 384 C 102 387.3125 104.6875 390 108 390 C 111.3125 390 114 387.3125 114 384 C 114 380.6875 111.3125 378 108 378 Z M 132 378 C 128.6875 378 126 380.6875 126 384 C 126 387.3125 128.6875 390 132 390 C 135.3125 390 138 387.3125 138 384 C 138 380.6875 135.3125 378 132 378 Z M 156 378 C 152.6875 378 150 380.6875 150 384 C 150 387.3125 152.6875 390 156 390 C 159.3125 390 162 387.3125 162 384 C 162 380.6875 159.3125 378 156 378 Z M 180 378 C 176.6875 378 174 380.6875 174 384 C 174 387.3125 176.6875 390 180 390 C 183.3125 390 186 387.3125 186 384 C 186 380.6875 183.3125 378 180 378 Z M 204 378 C 200.6875 378 198 380.6875 198 384 C 198 387.3125 200.6875 390 204 390 C 207.3125 390 210 387.3125 210 384 C 210 380.6875 207.3125 378 204 378 Z M 228 378 C 224.6875 378 222 380.6875 222 384 C 222 387.3125 224.6875 390 228 390 C 231.3125 390 234 387.3125 234 384 C 234 380.6875 231.3125 378 228 378 Z M 252 378 C 248.6875 378 246 380.6875 246 384 C 246 387.3125 248.6875 390 252 390 C 255.3125 390 258 387.3125 258 384 C 258 380.6875 255.3125 378 252 378 Z M 276 378 C 272.6875 378 270 380.6875 270 384 C 270 387.3125 272.6875 390 276 390 C 279.3125 390 282 387.3125 282 384 C 282 380.6875 279.3125 378 276 378 Z M 300 378 C 296.6875 378 294 380.6875 294 384 C 294 387.3125 296.6875 390 300 390 C 303.3125 390 306 387.3125 306 384 C 306 380.6875 303.3125 378 300 378 Z M 324 378 C 320.6875 378 318 380.6875 318 384 C 318 387.3125 320.6875 390 324 390 C 327.3125 390 330 387.3125 330 384 C 330 380.6875 327.3125 378 324 378 Z M 348 378 C 344.6875 378 342 380.6875 342 384 C 342 387.3125 344.6875 390 348 390 C 351.3125 390 354 387.3125 354 384 C 354 380.6875 351.3125 378 348 378 Z M 372 378 C 368.6875 378 366 380.6875 366 384 C 366 387.3125 368.6875 390 372 390 C 375.3125 390 378 387.3125 378 384 C 378 380.6875 375.3125 378 372 378 Z M 372 378 "/>
</g>
</svg>
