<svg fill="#000000" xmlns="http://www.w3.org/2000/svg"  viewBox="0 0 80 80" width="480px" height="480px"><path d="M30,15c0.552,0,1,0.448,1,1c0,0.552-0.448,1-1,1s-1-0.448-1-1C29,15.448,29.448,15,30,15z M25,16c0,0.552,0.448,1,1,1	s1-0.448,1-1c0-0.552-0.448-1-1-1S25,15.448,25,16z M21,16c0,0.552,0.448,1,1,1s1-0.448,1-1c0-0.552-0.448-1-1-1S21,15.448,21,16z M17,16c0,0.552,0.448,1,1,1s1-0.448,1-1c0-0.552-0.448-1-1-1S17,15.448,17,16z M33,16c0,0.552,0.448,1,1,1s1-0.448,1-1	c0-0.552-0.448-1-1-1S33,15.448,33,16z M37,16c0,0.552,0.448,1,1,1s1-0.448,1-1c0-0.552-0.448-1-1-1S37,15.448,37,16z M41,16	c0,0.552,0.448,1,1,1s1-0.448,1-1c0-0.552-0.448-1-1-1S41,15.448,41,16z M45,16c0,0.552,0.448,1,1,1s1-0.448,1-1	c0-0.552-0.448-1-1-1S45,15.448,45,16z M49,16c0,0.552,0.448,1,1,1s1-0.448,1-1c0-0.552-0.448-1-1-1S49,15.448,49,16z M53,16	c0,0.552,0.448,1,1,1s1-0.448,1-1c0-0.552-0.448-1-1-1S53,15.448,53,16z M57,16c0,0.552,0.448,1,1,1s1-0.448,1-1	c0-0.552-0.448-1-1-1S57,15.448,57,16z M61,16c0,0.552,0.448,1,1,1s1-0.448,1-1c0-0.552-0.448-1-1-1S61,15.448,61,16z"/><path d="M30,63c0.552,0,1,0.448,1,1s-0.448,1-1,1s-1-0.448-1-1S29.448,63,30,63z M25,64c0,0.552,0.448,1,1,1s1-0.448,1-1	s-0.448-1-1-1S25,63.448,25,64z M21,64c0,0.552,0.448,1,1,1s1-0.448,1-1s-0.448-1-1-1S21,63.448,21,64z M17,64c0,0.552,0.448,1,1,1	s1-0.448,1-1s-0.448-1-1-1S17,63.448,17,64z M33,64c0,0.552,0.448,1,1,1s1-0.448,1-1s-0.448-1-1-1S33,63.448,33,64z M37,64	c0,0.552,0.448,1,1,1s1-0.448,1-1s-0.448-1-1-1S37,63.448,37,64z M41,64c0,0.552,0.448,1,1,1s1-0.448,1-1s-0.448-1-1-1	S41,63.448,41,64z M45,64c0,0.552,0.448,1,1,1s1-0.448,1-1s-0.448-1-1-1S45,63.448,45,64z M49,64c0,0.552,0.448,1,1,1s1-0.448,1-1	s-0.448-1-1-1S49,63.448,49,64z M53,64c0,0.552,0.448,1,1,1s1-0.448,1-1s-0.448-1-1-1S53,63.448,53,64z M57,64c0,0.552,0.448,1,1,1	s1-0.448,1-1s-0.448-1-1-1S57,63.448,57,64z M61,64c0,0.552,0.448,1,1,1s1-0.448,1-1s-0.448-1-1-1S61,63.448,61,64z"/><path fill="none" stroke="#000000" stroke-miterlimit="10" stroke-width="2" d="M62,69H18c-3.866,0-7-3.134-7-7V18	c0-3.866,3.134-7,7-7h44c3.866,0,7,3.134,7,7v44C69,65.866,65.866,69,62,69z"/><path d="M22,37v20c0,1.105,0.895,2,2,2h32c1.105,0,2-0.895,2-2V37H22z M24,57V41.1l2.8-2.1h4l-4,3h2.6l4-3h4l-4,3H36l4-3h4l-4,3h2.6	l4-3h4l-4,3h2.6l4-3H56v0.9L53.2,42H56v15H24z"/><polygon points="37,53 37,46 44,49.5"/><path d="M55.061,22.578c-0.249-0.881-1.051-1.456-1.923-1.456c-0.18,0-0.364,0.025-0.546,0.076l-30.263,8.565	c-1.063,0.301-1.681,1.406-1.38,2.469l1.064,3.761l34.112-9.654L55.061,22.578z M53.136,23.123l0.089,0.314l-1.602,2.098	l-3.767,1.066l1.932-2.53L53.136,23.123z M37.358,27.588l3.767-1.066l-1.932,2.53l-3.767,1.066L37.358,27.588z M32.977,30.812	l-3.767,1.066l1.932-2.53l3.767-1.066L32.977,30.812z M43.573,25.829l3.767-1.066l-1.932,2.53l-3.767,1.066L43.573,25.829z M23.309,33.227l1.619-2.121l3.767-1.066l-1.933,2.53l-3.369,0.954L23.309,33.227z"/></svg>